solid OpenSCAD_Model
  facet normal 0 0 1
    outer loop
      vertex -47.625 -62.675 101.6
      vertex -44.625 -59.675 101.6
      vertex -44.625 -1.25 101.6
    endloop
  endfacet
  facet normal 0 0 1
    outer loop
      vertex -47.625 -62.675 101.6
      vertex -1.25 -59.675 101.6
      vertex -44.625 -59.675 101.6
    endloop
  endfacet
  facet normal -1 0 0
    outer loop
      vertex -47.625 -62.675 0
      vertex -47.625 -62.675 101.6
      vertex -47.625 62.675 101.6
    endloop
  endfacet
  facet normal 0 0 1
    outer loop
      vertex -47.625 -62.675 101.6
      vertex -44.625 -1.25 101.6
      vertex -44.625 1.25 101.6
    endloop
  endfacet
  facet normal 0 0 1
    outer loop
      vertex -47.625 -62.675 101.6
      vertex -44.625 1.25 101.6
      vertex -44.625 59.675 101.6
    endloop
  endfacet
  facet normal 0 -1 0
    outer loop
      vertex -47.625 -62.675 0
      vertex 47.625 -62.675 101.6
      vertex -47.625 -62.675 101.6
    endloop
  endfacet
  facet normal 0 0 1
    outer loop
      vertex -47.625 -62.675 101.6
      vertex 1.25 -59.675 101.6
      vertex -1.25 -59.675 101.6
    endloop
  endfacet
  facet normal 0 0 1
    outer loop
      vertex -47.625 -62.675 101.6
      vertex 44.625 -59.675 101.6
      vertex 1.25 -59.675 101.6
    endloop
  endfacet
  facet normal -1 0 0
    outer loop
      vertex -47.625 -62.675 0
      vertex -47.625 62.675 93.6
      vertex -47.625 62.675 0
    endloop
  endfacet
  facet normal 0 0 -1
    outer loop
      vertex -47.625 -62.675 0
      vertex -47.625 62.675 0
      vertex 47.625 62.675 0
    endloop
  endfacet
  facet normal 0 1 0
    outer loop
      vertex -47.625 62.675 0
      vertex -47.625 62.675 93.6
      vertex 47.625 62.675 0
    endloop
  endfacet
  facet normal -1 0 0
    outer loop
      vertex -47.625 -62.675 0
      vertex -47.625 62.675 101.6
      vertex -47.625 62.675 93.6
    endloop
  endfacet
  facet normal 0 0 1
    outer loop
      vertex -47.625 -62.675 101.6
      vertex -44.625 59.675 101.6
      vertex -47.625 62.675 101.6
    endloop
  endfacet
  facet normal 0 0 1
    outer loop
      vertex -47.625 62.675 101.6
      vertex -44.625 59.675 101.6
      vertex 47.625 62.675 101.6
    endloop
  endfacet
  facet normal 0 -1 0
    outer loop
      vertex -47.625 -62.675 0
      vertex 47.625 -62.675 0
      vertex 47.625 -62.675 101.6
    endloop
  endfacet
  facet normal 0 0 -1
    outer loop
      vertex -47.625 -62.675 0
      vertex 47.625 62.675 0
      vertex 47.625 -62.675 0
    endloop
  endfacet
  facet normal 1 0 0
    outer loop
      vertex 47.625 -62.675 0
      vertex 47.625 62.675 0
      vertex 47.625 -62.675 101.6
    endloop
  endfacet
  facet normal 0 0 1
    outer loop
      vertex -47.625 -62.675 101.6
      vertex 47.625 -62.675 101.6
      vertex 44.625 -59.675 101.6
    endloop
  endfacet
  facet normal 0 0 1
    outer loop
      vertex 44.625 -59.675 101.6
      vertex 47.625 -62.675 101.6
      vertex 47.625 62.675 101.6
    endloop
  endfacet
  facet normal 0 0 1
    outer loop
      vertex 44.625 -59.675 101.6
      vertex 47.625 62.675 101.6
      vertex 44.625 -1.25 101.6
    endloop
  endfacet
  facet normal 0 1 0
    outer loop
      vertex 47.625 62.675 0
      vertex -47.625 62.675 93.6
      vertex 47.625 62.675 93.6
    endloop
  endfacet
  facet normal 0 0 1
    outer loop
      vertex -44.625 59.675 101.6
      vertex -1.25 59.675 101.6
      vertex 47.625 62.675 101.6
    endloop
  endfacet
  facet normal 0 0 1
    outer loop
      vertex -1.25 59.675 101.6
      vertex 1.25 59.675 101.6
      vertex 47.625 62.675 101.6
    endloop
  endfacet
  facet normal 1 0 0
    outer loop
      vertex 47.625 62.675 0
      vertex 47.625 62.675 93.6
      vertex 47.625 -62.675 101.6
    endloop
  endfacet
  facet normal 0 0 1
    outer loop
      vertex 44.625 1.25 101.6
      vertex 44.625 -1.25 101.6
      vertex 47.625 62.675 101.6
    endloop
  endfacet
  facet normal 1 0 0
    outer loop
      vertex 47.625 -62.675 101.6
      vertex 47.625 62.675 93.6
      vertex 47.625 62.675 101.6
    endloop
  endfacet
  facet normal 0 0 1
    outer loop
      vertex 44.625 59.675 101.6
      vertex 47.625 62.675 101.6
      vertex 1.25 59.675 101.6
    endloop
  endfacet
  facet normal 0 0 1
    outer loop
      vertex 44.625 59.675 101.6
      vertex 44.625 1.25 101.6
      vertex 47.625 62.675 101.6
    endloop
  endfacet
  facet normal 0 0 1
    outer loop
      vertex -44.625 -59.675 3
      vertex -1.25 -59.675 3
      vertex -44.625 -1.25 3
    endloop
  endfacet
  facet normal 1 0 0
    outer loop
      vertex -44.625 -59.675 3
      vertex -44.625 -1.25 3
      vertex -44.625 -59.675 101.6
    endloop
  endfacet
  facet normal 0 1 0
    outer loop
      vertex -44.625 -59.675 3
      vertex -1.25 -59.675 101.6
      vertex -1.25 -59.675 3
    endloop
  endfacet
  facet normal 0 0 1
    outer loop
      vertex -1.25 -1.25 3
      vertex -44.625 -1.25 3
      vertex -1.25 -59.675 3
    endloop
  endfacet
  facet normal 0 1 0
    outer loop
      vertex -44.625 -59.675 3
      vertex -44.625 -59.675 101.6
      vertex -1.25 -59.675 101.6
    endloop
  endfacet
  facet normal 1 0 0
    outer loop
      vertex -44.625 -59.675 101.6
      vertex -44.625 -1.25 3
      vertex -44.625 -1.25 101.6
    endloop
  endfacet
  facet normal 1 0 0
    outer loop
      vertex -44.625 59.675 3
      vertex -44.625 1.25 101.6
      vertex -44.625 1.25 3
    endloop
  endfacet
  facet normal 0 0 1
    outer loop
      vertex -44.625 59.675 3
      vertex -44.625 1.25 3
      vertex -1.25 59.675 3
    endloop
  endfacet
  facet normal 0 -1 0
    outer loop
      vertex -44.625 59.675 3
      vertex -1.25 59.675 3
      vertex -44.625 59.675 101.6
    endloop
  endfacet
  facet normal 0 0 1
    outer loop
      vertex -44.625 1.25 3
      vertex -1.25 1.25 3
      vertex -1.25 59.675 3
    endloop
  endfacet
  facet normal 1 0 0
    outer loop
      vertex -44.625 59.675 3
      vertex -44.625 59.675 101.6
      vertex -44.625 1.25 101.6
    endloop
  endfacet
  facet normal 0 -1 0
    outer loop
      vertex -44.625 59.675 101.6
      vertex -1.25 59.675 3
      vertex -1.25 59.675 101.6
    endloop
  endfacet
  facet normal 0 0 1
    outer loop
      vertex 1.25 -1.25 3
      vertex 1.25 -59.675 3
      vertex 44.625 -1.25 3
    endloop
  endfacet
  facet normal 0 0 1
    outer loop
      vertex 44.625 -59.675 3
      vertex 44.625 -1.25 3
      vertex 1.25 -59.675 3
    endloop
  endfacet
  facet normal 0 1 0
    outer loop
      vertex 44.625 -59.675 3
      vertex 1.25 -59.675 3
      vertex 44.625 -59.675 101.6
    endloop
  endfacet
  facet normal -1 0 0
    outer loop
      vertex 44.625 -59.675 3
      vertex 44.625 -1.25 101.6
      vertex 44.625 -1.25 3
    endloop
  endfacet
  facet normal 0 1 0
    outer loop
      vertex 44.625 -59.675 101.6
      vertex 1.25 -59.675 3
      vertex 1.25 -59.675 101.6
    endloop
  endfacet
  facet normal -1 0 0
    outer loop
      vertex 44.625 -59.675 3
      vertex 44.625 -59.675 101.6
      vertex 44.625 -1.25 101.6
    endloop
  endfacet
  facet normal 0 0 1
    outer loop
      vertex 1.25 1.25 3
      vertex 44.625 1.25 3
      vertex 1.25 59.675 3
    endloop
  endfacet
  facet normal 0 -1 0
    outer loop
      vertex 44.625 59.675 3
      vertex 1.25 59.675 101.6
      vertex 1.25 59.675 3
    endloop
  endfacet
  facet normal 0 0 1
    outer loop
      vertex 44.625 59.675 3
      vertex 1.25 59.675 3
      vertex 44.625 1.25 3
    endloop
  endfacet
  facet normal -1 0 0
    outer loop
      vertex 44.625 59.675 3
      vertex 44.625 1.25 3
      vertex 44.625 59.675 101.6
    endloop
  endfacet
  facet normal -1 0 0
    outer loop
      vertex 44.625 59.675 101.6
      vertex 44.625 1.25 3
      vertex 44.625 1.25 101.6
    endloop
  endfacet
  facet normal 0 -1 0
    outer loop
      vertex 44.625 59.675 3
      vertex 44.625 59.675 101.6
      vertex 1.25 59.675 101.6
    endloop
  endfacet
  facet normal 0 -1 0
    outer loop
      vertex -39.45 -1.25 7.9
      vertex -44.625 -1.25 3
      vertex -1.25 -1.25 3
    endloop
  endfacet
  facet normal 0 1 0
    outer loop
      vertex -39.45 1.25 7.9
      vertex -1.25 1.25 3
      vertex -44.625 1.25 3
    endloop
  endfacet
  facet normal 0 1 0
    outer loop
      vertex -39.45 1.25 7.9
      vertex -44.625 1.25 3
      vertex -44.625 1.25 101.6
    endloop
  endfacet
  facet normal 0 -1 0
    outer loop
      vertex -39.45 -1.25 7.9
      vertex -39.45 -1.25 101.6
      vertex -44.625 -1.25 3
    endloop
  endfacet
  facet normal 0 -1 0
    outer loop
      vertex -39.45 -1.25 7.9
      vertex -1.25 -1.25 3
      vertex -1.25 -1.25 7.9
    endloop
  endfacet
  facet normal 0 1 0
    outer loop
      vertex -39.45 1.25 7.9
      vertex -1.25 1.25 7.9
      vertex -1.25 1.25 3
    endloop
  endfacet
  facet normal 0 -1 0
    outer loop
      vertex -39.45 -1.25 101.6
      vertex -44.625 -1.25 101.6
      vertex -44.625 -1.25 3
    endloop
  endfacet
  facet normal 0 1 0
    outer loop
      vertex -39.45 1.25 7.9
      vertex -44.625 1.25 101.6
      vertex -39.45 1.25 101.6
    endloop
  endfacet
  facet normal 0 0 1
    outer loop
      vertex -39.45 1.25 101.6
      vertex -44.625 1.25 101.6
      vertex -44.625 -1.25 101.6
    endloop
  endfacet
  facet normal 0 0 1
    outer loop
      vertex -39.45 -1.25 101.6
      vertex -39.45 1.25 101.6
      vertex -44.625 -1.25 101.6
    endloop
  endfacet
  facet normal 0 -1 0
    outer loop
      vertex 1.25 -1.25 7.9
      vertex 1.25 -1.25 3
      vertex 39.45 -1.25 7.9
    endloop
  endfacet
  facet normal 0 1 0
    outer loop
      vertex 1.25 1.25 7.9
      vertex 39.45 1.25 7.9
      vertex 1.25 1.25 3
    endloop
  endfacet
  facet normal 0 -1 0
    outer loop
      vertex 39.45 -1.25 7.9
      vertex 1.25 -1.25 3
      vertex 44.625 -1.25 3
    endloop
  endfacet
  facet normal 0 1 0
    outer loop
      vertex 39.45 1.25 7.9
      vertex 44.625 1.25 3
      vertex 1.25 1.25 3
    endloop
  endfacet
  facet normal 0 1 0
    outer loop
      vertex 39.45 1.25 7.9
      vertex 39.45 1.25 101.6
      vertex 44.625 1.25 3
    endloop
  endfacet
  facet normal 0 -1 0
    outer loop
      vertex 39.45 -1.25 7.9
      vertex 44.625 -1.25 3
      vertex 44.625 -1.25 101.6
    endloop
  endfacet
  facet normal 0 -1 0
    outer loop
      vertex 39.45 -1.25 7.9
      vertex 44.625 -1.25 101.6
      vertex 39.45 -1.25 101.6
    endloop
  endfacet
  facet normal 0 1 0
    outer loop
      vertex 39.45 1.25 101.6
      vertex 44.625 1.25 101.6
      vertex 44.625 1.25 3
    endloop
  endfacet
  facet normal 0 0 1
    outer loop
      vertex 39.45 -1.25 101.6
      vertex 44.625 1.25 101.6
      vertex 39.45 1.25 101.6
    endloop
  endfacet
  facet normal 0 0 1
    outer loop
      vertex 39.45 -1.25 101.6
      vertex 44.625 -1.25 101.6
      vertex 44.625 1.25 101.6
    endloop
  endfacet
  facet normal -1 0 0
    outer loop
      vertex -1.25 -57.45 7.9
      vertex -1.25 -1.25 7.9
      vertex -1.25 -59.675 3
    endloop
  endfacet
  facet normal -1 0 0
    outer loop
      vertex -1.25 -57.45 7.9
      vertex -1.25 -59.675 3
      vertex -1.25 -59.675 101.6
    endloop
  endfacet
  facet normal -1 0 0
    outer loop
      vertex -1.25 -1.25 7.9
      vertex -1.25 -1.25 3
      vertex -1.25 -59.675 3
    endloop
  endfacet
  facet normal -1 0 0
    outer loop
      vertex -1.25 -57.45 7.9
      vertex -1.25 -59.675 101.6
      vertex -1.25 -57.45 101.6
    endloop
  endfacet
  facet normal 0 0 1
    outer loop
      vertex -1.25 -57.45 101.6
      vertex -1.25 -59.675 101.6
      vertex 1.25 -59.675 101.6
    endloop
  endfacet
  facet normal -1 0 0
    outer loop
      vertex -1.25 1.25 7.9
      vertex -1.25 57.45 7.9
      vertex -1.25 1.25 3
    endloop
  endfacet
  facet normal -1 0 0
    outer loop
      vertex -1.25 57.45 7.9
      vertex -1.25 59.675 3
      vertex -1.25 1.25 3
    endloop
  endfacet
  facet normal -1 0 0
    outer loop
      vertex -1.25 57.45 7.9
      vertex -1.25 57.45 101.6
      vertex -1.25 59.675 3
    endloop
  endfacet
  facet normal -1 0 0
    outer loop
      vertex -1.25 57.45 101.6
      vertex -1.25 59.675 101.6
      vertex -1.25 59.675 3
    endloop
  endfacet
  facet normal 0 0 1
    outer loop
      vertex -1.25 57.45 101.6
      vertex 1.25 57.45 101.6
      vertex -1.25 59.675 101.6
    endloop
  endfacet
  facet normal 1 0 0
    outer loop
      vertex 1.25 -57.45 7.9
      vertex 1.25 -59.675 3
      vertex 1.25 -1.25 3
    endloop
  endfacet
  facet normal 1 0 0
    outer loop
      vertex 1.25 -57.45 7.9
      vertex 1.25 -57.45 101.6
      vertex 1.25 -59.675 3
    endloop
  endfacet
  facet normal 1 0 0
    outer loop
      vertex 1.25 -57.45 7.9
      vertex 1.25 -1.25 3
      vertex 1.25 -1.25 7.9
    endloop
  endfacet
  facet normal 1 0 0
    outer loop
      vertex 1.25 -57.45 101.6
      vertex 1.25 -59.675 101.6
      vertex 1.25 -59.675 3
    endloop
  endfacet
  facet normal 0 0 1
    outer loop
      vertex -1.25 -57.45 101.6
      vertex 1.25 -59.675 101.6
      vertex 1.25 -57.45 101.6
    endloop
  endfacet
  facet normal 1 0 0
    outer loop
      vertex 1.25 1.25 7.9
      vertex 1.25 1.25 3
      vertex 1.25 59.675 3
    endloop
  endfacet
  facet normal 1 0 0
    outer loop
      vertex 1.25 1.25 7.9
      vertex 1.25 59.675 3
      vertex 1.25 57.45 7.9
    endloop
  endfacet
  facet normal 1 0 0
    outer loop
      vertex 1.25 57.45 7.9
      vertex 1.25 59.675 3
      vertex 1.25 59.675 101.6
    endloop
  endfacet
  facet normal 1 0 0
    outer loop
      vertex 1.25 57.45 7.9
      vertex 1.25 59.675 101.6
      vertex 1.25 57.45 101.6
    endloop
  endfacet
  facet normal 0 0 1
    outer loop
      vertex 1.25 57.45 101.6
      vertex 1.25 59.675 101.6
      vertex -1.25 59.675 101.6
    endloop
  endfacet
  facet normal 0 0 1
    outer loop
      vertex -39.45 -1.25 7.9
      vertex -1.25 1.25 7.9
      vertex -39.45 1.25 7.9
    endloop
  endfacet
  facet normal 1 0 0
    outer loop
      vertex -39.45 -1.25 7.9
      vertex -39.45 1.25 7.9
      vertex -39.45 -1.25 101.6
    endloop
  endfacet
  facet normal 0 0 1
    outer loop
      vertex -1.25 -57.45 7.9
      vertex 1.25 -57.45 7.9
      vertex -1.25 -1.25 7.9
    endloop
  endfacet
  facet normal 0 0 1
    outer loop
      vertex -39.45 -1.25 7.9
      vertex -1.25 -1.25 7.9
      vertex -1.25 1.25 7.9
    endloop
  endfacet
  facet normal 0 0 1
    outer loop
      vertex -1.25 -1.25 7.9
      vertex 1.25 1.25 7.9
      vertex -1.25 1.25 7.9
    endloop
  endfacet
  facet normal 1 0 0
    outer loop
      vertex -39.45 1.25 7.9
      vertex -39.45 1.25 101.6
      vertex -39.45 -1.25 101.6
    endloop
  endfacet
  facet normal 0 1 0
    outer loop
      vertex -1.25 -57.45 7.9
      vertex -1.25 -57.45 101.6
      vertex 1.25 -57.45 101.6
    endloop
  endfacet
  facet normal 0 0 1
    outer loop
      vertex -1.25 1.25 7.9
      vertex 1.25 1.25 7.9
      vertex -1.25 57.45 7.9
    endloop
  endfacet
  facet normal 0 -1 0
    outer loop
      vertex -1.25 57.45 7.9
      vertex 1.25 57.45 7.9
      vertex -1.25 57.45 101.6
    endloop
  endfacet
  facet normal 0 1 0
    outer loop
      vertex -1.25 -57.45 7.9
      vertex 1.25 -57.45 101.6
      vertex 1.25 -57.45 7.9
    endloop
  endfacet
  facet normal 0 0 1
    outer loop
      vertex -1.25 -1.25 7.9
      vertex 1.25 -57.45 7.9
      vertex 1.25 -1.25 7.9
    endloop
  endfacet
  facet normal 0 0 1
    outer loop
      vertex -1.25 -1.25 7.9
      vertex 1.25 -1.25 7.9
      vertex 1.25 1.25 7.9
    endloop
  endfacet
  facet normal 0 0 1
    outer loop
      vertex 1.25 -1.25 7.9
      vertex 39.45 1.25 7.9
      vertex 1.25 1.25 7.9
    endloop
  endfacet
  facet normal 0 0 1
    outer loop
      vertex 1.25 -1.25 7.9
      vertex 39.45 -1.25 7.9
      vertex 39.45 1.25 7.9
    endloop
  endfacet
  facet normal -1 0 0
    outer loop
      vertex 39.45 -1.25 7.9
      vertex 39.45 1.25 101.6
      vertex 39.45 1.25 7.9
    endloop
  endfacet
  facet normal -1 0 0
    outer loop
      vertex 39.45 -1.25 7.9
      vertex 39.45 -1.25 101.6
      vertex 39.45 1.25 101.6
    endloop
  endfacet
  facet normal 0 0 1
    outer loop
      vertex -1.25 57.45 7.9
      vertex 1.25 1.25 7.9
      vertex 1.25 57.45 7.9
    endloop
  endfacet
  facet normal 0 -1 0
    outer loop
      vertex -1.25 57.45 101.6
      vertex 1.25 57.45 7.9
      vertex 1.25 57.45 101.6
    endloop
  endfacet
  facet normal 0 1 0
    outer loop
      vertex 28.575 67.4 98.325
      vertex 28.575 67.4 101.6
      vertex 31.75 67.4 98.325
    endloop
  endfacet
  facet normal 1 0 0
    outer loop
      vertex 28.575 67.4 98.325
      vertex 28.575 70.675 101.6
      vertex 28.575 67.4 101.6
    endloop
  endfacet
  facet normal 0 1 0
    outer loop
      vertex 28.575 67.4 101.6
      vertex 31.75 67.4 101.6
      vertex 31.75 67.4 98.325
    endloop
  endfacet
  facet normal -1 0 0
    outer loop
      vertex 31.75 67.4 98.325
      vertex 31.75 67.4 101.6
      vertex 31.75 70.675 101.6
    endloop
  endfacet
  facet normal 1 0 0
    outer loop
      vertex 12.7 67.4 98.325
      vertex 12.7 70.675 101.6
      vertex 12.7 67.4 101.6
    endloop
  endfacet
  facet normal 0 1 0
    outer loop
      vertex 12.7 67.4 98.325
      vertex 12.7 67.4 101.6
      vertex 15.875 67.4 98.325
    endloop
  endfacet
  facet normal 0 1 0
    outer loop
      vertex 12.7 67.4 101.6
      vertex 15.875 67.4 101.6
      vertex 15.875 67.4 98.325
    endloop
  endfacet
  facet normal -1 0 0
    outer loop
      vertex 15.875 67.4 98.325
      vertex 15.875 67.4 101.6
      vertex 15.875 70.675 101.6
    endloop
  endfacet
  facet normal 0 1 0
    outer loop
      vertex 6.349999999999999 67.4 98.325
      vertex 6.349999999999999 67.4 101.6
      vertex 9.524999999999999 67.4 98.325
    endloop
  endfacet
  facet normal 1 0 0
    outer loop
      vertex 6.349999999999999 67.4 98.325
      vertex 6.349999999999999 70.675 101.6
      vertex 6.349999999999999 67.4 101.6
    endloop
  endfacet
  facet normal 0 1 0
    outer loop
      vertex 6.349999999999999 67.4 101.6
      vertex 9.524999999999999 67.4 101.6
      vertex 9.524999999999999 67.4 98.325
    endloop
  endfacet
  facet normal -1 0 0
    outer loop
      vertex 9.524999999999999 67.4 98.325
      vertex 9.524999999999999 67.4 101.6
      vertex 9.524999999999999 70.675 101.6
    endloop
  endfacet
  facet normal 1 0 0
    outer loop
      vertex -4.762499999999998 67.4 98.325
      vertex -4.762499999999998 70.675 101.6
      vertex -4.762499999999998 67.4 101.6
    endloop
  endfacet
  facet normal 0 1 0
    outer loop
      vertex -4.762499999999998 67.4 98.325
      vertex -4.762499999999998 67.4 101.6
      vertex -1.5874999999999986 67.4 98.325
    endloop
  endfacet
  facet normal 0 1 0
    outer loop
      vertex -4.762499999999998 67.4 101.6
      vertex -1.5874999999999986 67.4 101.6
      vertex -1.5874999999999986 67.4 98.325
    endloop
  endfacet
  facet normal -1 0 0
    outer loop
      vertex -1.5874999999999986 67.4 98.325
      vertex -1.5874999999999986 67.4 101.6
      vertex -1.5874999999999986 70.675 101.6
    endloop
  endfacet
  facet normal 0 1 0
    outer loop
      vertex -19.05 67.4 98.325
      vertex -19.05 67.4 101.6
      vertex -15.875 67.4 98.325
    endloop
  endfacet
  facet normal 1 0 0
    outer loop
      vertex -19.05 67.4 98.325
      vertex -19.05 70.675 101.6
      vertex -19.05 67.4 101.6
    endloop
  endfacet
  facet normal 0 1 0
    outer loop
      vertex -19.05 67.4 101.6
      vertex -15.875 67.4 101.6
      vertex -15.875 67.4 98.325
    endloop
  endfacet
  facet normal -1 0 0
    outer loop
      vertex -15.875 67.4 98.325
      vertex -15.875 67.4 101.6
      vertex -15.875 70.675 101.6
    endloop
  endfacet
  facet normal 1 0 0
    outer loop
      vertex -28.575000000000006 67.4 98.325
      vertex -28.575000000000006 70.675 101.6
      vertex -28.575000000000006 67.4 101.6
    endloop
  endfacet
  facet normal 0 1 0
    outer loop
      vertex -28.575000000000006 67.4 98.325
      vertex -28.575000000000006 67.4 101.6
      vertex -25.400000000000006 67.4 98.325
    endloop
  endfacet
  facet normal 0 1 0
    outer loop
      vertex -28.575000000000006 67.4 101.6
      vertex -25.400000000000006 67.4 101.6
      vertex -25.400000000000006 67.4 98.325
    endloop
  endfacet
  facet normal -1 0 0
    outer loop
      vertex -25.400000000000006 67.4 98.325
      vertex -25.400000000000006 67.4 101.6
      vertex -25.400000000000006 70.675 101.6
    endloop
  endfacet
  facet normal -1 0 0
    outer loop
      vertex -47.625 70.675 101.6
      vertex -47.625 62.675 93.6
      vertex -47.625 62.675 101.6
    endloop
  endfacet
  facet normal 0 0.7071067811865476 -0.7071067811865476
    outer loop
      vertex -47.625 70.675 101.6
      vertex -28.575000000000006 67.4 98.325
      vertex -47.625 62.675 93.6
    endloop
  endfacet
  facet normal 0 0 1
    outer loop
      vertex -47.625 70.675 101.6
      vertex -47.625 62.675 101.6
      vertex -28.575000000000006 67.4 101.6
    endloop
  endfacet
  facet normal 0 0 1
    outer loop
      vertex -28.575000000000006 67.4 101.6
      vertex -47.625 62.675 101.6
      vertex -25.400000000000006 67.4 101.6
    endloop
  endfacet
  facet normal 0 0.7071067811865475 -0.7071067811865475
    outer loop
      vertex -47.625 70.675 101.6
      vertex -28.575000000000006 70.675 101.6
      vertex -28.575000000000006 67.4 98.325
    endloop
  endfacet
  facet normal 0 0 1
    outer loop
      vertex -47.625 70.675 101.6
      vertex -28.575000000000006 67.4 101.6
      vertex -28.575000000000006 70.675 101.6
    endloop
  endfacet
  facet normal 0 0 1
    outer loop
      vertex -25.400000000000006 67.4 101.6
      vertex -47.625 62.675 101.6
      vertex -19.05 67.4 101.6
    endloop
  endfacet
  facet normal 0 0 1
    outer loop
      vertex -19.05 67.4 101.6
      vertex -47.625 62.675 101.6
      vertex -15.875 67.4 101.6
    endloop
  endfacet
  facet normal 0 0 1
    outer loop
      vertex -15.875 67.4 101.6
      vertex -47.625 62.675 101.6
      vertex -4.762499999999998 67.4 101.6
    endloop
  endfacet
  facet normal 0 0.7071067811865475 -0.7071067811865475
    outer loop
      vertex -25.400000000000006 67.4 98.325
      vertex -25.400000000000006 70.675 101.6
      vertex -19.05 67.4 98.325
    endloop
  endfacet
  facet normal 0 0 1
    outer loop
      vertex -25.400000000000006 67.4 101.6
      vertex -19.05 70.675 101.6
      vertex -25.400000000000006 70.675 101.6
    endloop
  endfacet
  facet normal 0 0 1
    outer loop
      vertex -25.400000000000006 67.4 101.6
      vertex -19.05 67.4 101.6
      vertex -19.05 70.675 101.6
    endloop
  endfacet
  facet normal 0 0.7071067811865475 -0.7071067811865475
    outer loop
      vertex -25.400000000000006 70.675 101.6
      vertex -19.05 70.675 101.6
      vertex -19.05 67.4 98.325
    endloop
  endfacet
  facet normal 0 0 1
    outer loop
      vertex -4.762499999999998 67.4 101.6
      vertex -47.625 62.675 101.6
      vertex -1.5874999999999986 67.4 101.6
    endloop
  endfacet
  facet normal 0 0 1
    outer loop
      vertex -1.5874999999999986 67.4 101.6
      vertex -47.625 62.675 101.6
      vertex 6.349999999999999 67.4 101.6
    endloop
  endfacet
  facet normal 0 0.7071067811865475 -0.7071067811865475
    outer loop
      vertex -15.875 67.4 98.325
      vertex -15.875 70.675 101.6
      vertex -4.762499999999998 67.4 98.325
    endloop
  endfacet
  facet normal 0 0 1
    outer loop
      vertex -15.875 67.4 101.6
      vertex -4.762499999999998 70.675 101.6
      vertex -15.875 70.675 101.6
    endloop
  endfacet
  facet normal 2.2327412930231017e-19 0.7071067811865475 -0.7071067811865475
    outer loop
      vertex -28.575000000000006 67.4 98.325
      vertex 47.625 62.675 93.6
      vertex -47.625 62.675 93.6
    endloop
  endfacet
  facet normal 0 0 1
    outer loop
      vertex 6.349999999999999 67.4 101.6
      vertex -47.625 62.675 101.6
      vertex 9.524999999999999 67.4 101.6
    endloop
  endfacet
  facet normal 0 0 1
    outer loop
      vertex 9.524999999999999 67.4 101.6
      vertex -47.625 62.675 101.6
      vertex 12.7 67.4 101.6
    endloop
  endfacet
  facet normal 0 0 1
    outer loop
      vertex 12.7 67.4 101.6
      vertex -47.625 62.675 101.6
      vertex 15.875 67.4 101.6
    endloop
  endfacet
  facet normal 0 0 1
    outer loop
      vertex -15.875 67.4 101.6
      vertex -4.762499999999998 67.4 101.6
      vertex -4.762499999999998 70.675 101.6
    endloop
  endfacet
  facet normal 0 0.7071067811865475 -0.7071067811865475
    outer loop
      vertex -15.875 70.675 101.6
      vertex -4.762499999999998 70.675 101.6
      vertex -4.762499999999998 67.4 98.325
    endloop
  endfacet
  facet normal 0 0.7071067811865476 -0.7071067811865476
    outer loop
      vertex -28.575000000000006 67.4 98.325
      vertex -25.400000000000006 67.4 98.325
      vertex 47.625 62.675 93.6
    endloop
  endfacet
  facet normal 0 0 1
    outer loop
      vertex 15.875 67.4 101.6
      vertex -47.625 62.675 101.6
      vertex 28.575 67.4 101.6
    endloop
  endfacet
  facet normal 0 0.7071067811865476 -0.7071067811865476
    outer loop
      vertex -25.400000000000006 67.4 98.325
      vertex -19.05 67.4 98.325
      vertex 47.625 62.675 93.6
    endloop
  endfacet
  facet normal 0 0.7071067811865476 -0.7071067811865476
    outer loop
      vertex -1.5874999999999986 67.4 98.325
      vertex -1.5874999999999986 70.675 101.6
      vertex 6.349999999999999 67.4 98.325
    endloop
  endfacet
  facet normal 0 0 1
    outer loop
      vertex -1.5874999999999986 67.4 101.6
      vertex 6.349999999999999 70.675 101.6
      vertex -1.5874999999999986 70.675 101.6
    endloop
  endfacet
  facet normal 0 0.7071067811865476 -0.7071067811865476
    outer loop
      vertex -19.05 67.4 98.325
      vertex -15.875 67.4 98.325
      vertex 47.625 62.675 93.6
    endloop
  endfacet
  facet normal 0 0 1
    outer loop
      vertex 28.575 67.4 101.6
      vertex -47.625 62.675 101.6
      vertex 31.75 67.4 101.6
    endloop
  endfacet
  facet normal 0 0 1
    outer loop
      vertex -1.5874999999999986 67.4 101.6
      vertex 6.349999999999999 67.4 101.6
      vertex 6.349999999999999 70.675 101.6
    endloop
  endfacet
  facet normal 0 0.7071067811865476 -0.7071067811865476
    outer loop
      vertex -1.5874999999999986 70.675 101.6
      vertex 6.349999999999999 70.675 101.6
      vertex 6.349999999999999 67.4 98.325
    endloop
  endfacet
  facet normal 0 0.7071067811865475 -0.7071067811865475
    outer loop
      vertex -15.875 67.4 98.325
      vertex -4.762499999999998 67.4 98.325
      vertex 47.625 62.675 93.6
    endloop
  endfacet
  facet normal 0 0 1
    outer loop
      vertex 31.75 67.4 101.6
      vertex -47.625 62.675 101.6
      vertex 47.625 62.675 101.6
    endloop
  endfacet
  facet normal 0 0.7071067811865475 -0.7071067811865475
    outer loop
      vertex 9.524999999999999 67.4 98.325
      vertex 9.524999999999999 70.675 101.6
      vertex 12.7 67.4 98.325
    endloop
  endfacet
  facet normal 0 0 1
    outer loop
      vertex 9.524999999999999 67.4 101.6
      vertex 12.7 67.4 101.6
      vertex 12.7 70.675 101.6
    endloop
  endfacet
  facet normal 0 0 1
    outer loop
      vertex 9.524999999999999 67.4 101.6
      vertex 12.7 70.675 101.6
      vertex 9.524999999999999 70.675 101.6
    endloop
  endfacet
  facet normal 0 0.7071067811865475 -0.7071067811865475
    outer loop
      vertex 9.524999999999999 70.675 101.6
      vertex 12.7 70.675 101.6
      vertex 12.7 67.4 98.325
    endloop
  endfacet
  facet normal 0 0.7071067811865476 -0.7071067811865476
    outer loop
      vertex -4.762499999999998 67.4 98.325
      vertex -1.5874999999999986 67.4 98.325
      vertex 47.625 62.675 93.6
    endloop
  endfacet
  facet normal 0 0.7071067811865475 -0.7071067811865475
    outer loop
      vertex -1.5874999999999986 67.4 98.325
      vertex 6.349999999999999 67.4 98.325
      vertex 47.625 62.675 93.6
    endloop
  endfacet
  facet normal 0 0.7071067811865476 -0.7071067811865476
    outer loop
      vertex 15.875 67.4 98.325
      vertex 15.875 70.675 101.6
      vertex 28.575 67.4 98.325
    endloop
  endfacet
  facet normal 0 0 1
    outer loop
      vertex 15.875 67.4 101.6
      vertex 28.575 70.675 101.6
      vertex 15.875 70.675 101.6
    endloop
  endfacet
  facet normal 0 0.7071067811865476 -0.7071067811865476
    outer loop
      vertex 6.349999999999999 67.4 98.325
      vertex 9.524999999999999 67.4 98.325
      vertex 47.625 62.675 93.6
    endloop
  endfacet
  facet normal 0 0.7071067811865476 -0.7071067811865476
    outer loop
      vertex 9.524999999999999 67.4 98.325
      vertex 12.7 67.4 98.325
      vertex 47.625 62.675 93.6
    endloop
  endfacet
  facet normal 0 0.7071067811865476 -0.7071067811865476
    outer loop
      vertex 12.7 67.4 98.325
      vertex 15.875 67.4 98.325
      vertex 47.625 62.675 93.6
    endloop
  endfacet
  facet normal 0 0 1
    outer loop
      vertex 15.875 67.4 101.6
      vertex 28.575 67.4 101.6
      vertex 28.575 70.675 101.6
    endloop
  endfacet
  facet normal 0 0.7071067811865476 -0.7071067811865476
    outer loop
      vertex 15.875 70.675 101.6
      vertex 28.575 70.675 101.6
      vertex 28.575 67.4 98.325
    endloop
  endfacet
  facet normal 0 0.7071067811865476 -0.7071067811865476
    outer loop
      vertex 15.875 67.4 98.325
      vertex 28.575 67.4 98.325
      vertex 47.625 62.675 93.6
    endloop
  endfacet
  facet normal 0 0.7071067811865476 -0.7071067811865476
    outer loop
      vertex 28.575 67.4 98.325
      vertex 31.75 67.4 98.325
      vertex 47.625 62.675 93.6
    endloop
  endfacet
  facet normal 1.932769943731457e-18 0.7071067811865476 -0.7071067811865476
    outer loop
      vertex 31.75 67.4 98.325
      vertex 31.75 70.675 101.6
      vertex 47.625 62.675 93.6
    endloop
  endfacet
  facet normal 0 0 1
    outer loop
      vertex 31.75 67.4 101.6
      vertex 47.625 70.675 101.6
      vertex 31.75 70.675 101.6
    endloop
  endfacet
  facet normal 0 0.7071067811865476 -0.7071067811865476
    outer loop
      vertex 31.75 70.675 101.6
      vertex 47.625 70.675 101.6
      vertex 47.625 62.675 93.6
    endloop
  endfacet
  facet normal 0 0 1
    outer loop
      vertex 31.75 67.4 101.6
      vertex 47.625 62.675 101.6
      vertex 47.625 70.675 101.6
    endloop
  endfacet
  facet normal 1 0 0
    outer loop
      vertex 47.625 70.675 101.6
      vertex 47.625 62.675 101.6
      vertex 47.625 62.675 93.6
    endloop
  endfacet
endsolid OpenSCAD_Model
